<svg xmlns="http://www.w3.org/2000/svg" viewBox="0 0 683 1024" fill="currentColor">
<g transform="translate(0,1024) scale(0.1,-0.1)">
<path d="M3220 7924 c-458 -31 -760 -119 -919 -270 -105 -98 -101 -83 -101 -432 0 -241 -3 -302 -14 -311 -7 -6 -60 -24 -117 -40 -179 -51 -309 -100 -444 -166 -256 -127 -355 -235 -355 -390 0 -72 16 -118 59 -173 51 -64 115 -110 237 -171 139 -69 276 -118 444 -159 229 -55 225 -54 228 -81 8 -52 -10 -110 -53 -177 -62 -95 -86 -164 -92 -261 -5 -72 -2 -90 22 -157 l28 -77 -35 -52 c-55 -80 -68 -112 -68 -162 0 -51 14 -84 71 -164 22 -30 39 -64 39 -75 0 -12 -19 -44 -41 -71 -50 -60 -69 -102 -69 -152 0 -46 14 -73 73 -146 55 -67 74 -125 60 -179 -6 -21 -7 -38 -3 -38 13 0 39 35 55 73 18 43 10 92 -30 188 -14 32 -25 68 -25 80 0 50 71 120 90 90 4 -8 11 -52 15 -100 9 -107 35 -195 76 -251 20 -27 36 -67 45 -109 19 -92 68 -185 129 -248 37 -37 55 -64 60 -90 16 -87 82 -167 153 -186 34 -9 50 -21 67 -47 46 -72 111 -110 185 -110 34 0 46 -6 72 -35 43 -49 107 -85 166 -92 40 -4 60 -1 109 22 l61 27 40 -21 c90 -46 216 -15 283 69 28 35 38 40 73 40 73 1 151 50 194 122 9 16 28 30 46 34 76 15 139 85 167 184 8 30 30 64 64 100 72 77 107 149 125 257 5 29 20 68 33 85 48 64 66 116 86 243 10 70 22 129 25 132 11 11 58 -21 82 -57 27 -39 31 -85 10 -115 -22 -32 -56 -133 -56 -166 0 -37 20 -76 55 -109 l28 -25 -13 24 c-7 14 -10 45 -8 77 5 54 18 79 93 172 63 79 56 152 -25 253 -28 34 -50 67 -50 74 0 6 25 47 55 90 83 119 84 185 5 303 -22 33 -40 64 -40 69 0 5 12 38 26 74 23 56 26 73 21 144 -7 106 -27 164 -85 257 -36 58 -51 91 -55 130 -9 76 4 91 95 107 116 21 366 96 484 147 155 66 257 129 324 201 49 52 60 71 70 118 16 75 0 173 -37 234 -82 132 -379 287 -753 392 -60 17 -111 37 -118 47 -11 13 -12 70 -6 277 9 344 6 356 -90 450 -82 81 -167 129 -306 173 -117 37 -304 77 -430 91 -99 12 -494 22 -590 15z m-930 -2685 c0 -24 -23 -21 -28 4 -2 10 3 17 12 17 10 0 16 -9 16 -21z m2290 -338 c5 -11 10 -36 10 -55 0 -29 -4 -36 -19 -36 -24 0 -44 48 -35 83 7 32 29 35 44 8z m-2320 -20 c0 -39 -9 -61 -26 -61 -20 0 -22 53 -2 78 17 20 28 14 28 -17z"/>
<path d="M1830 4377 c-144 -99 -377 -330 -455 -451 -159 -244 -235 -485 -255 -808 -11 -169 -7 -198 31 -253 64 -93 159 -164 312 -232 320 -143 767 -242 1314 -290 281 -25 950 -25 1263 0 750 60 1364 236 1585 455 29 29 63 74 76 100 21 46 22 50 10 212 -12 182 -34 298 -80 439 -113 339 -318 596 -680 849 -41 29 -78 52 -82 52 -5 0 -6 -20 -3 -43 10 -72 -17 -145 -81 -216 -69 -77 -72 -108 -20 -171 42 -50 44 -82 9 -117 -22 -22 -31 -24 -67 -19 -58 10 -133 53 -176 102 l-37 42 -12 -66 c-16 -88 -69 -194 -131 -263 -27 -31 -53 -69 -57 -85 -20 -84 -100 -184 -176 -219 -26 -12 -68 -45 -93 -73 -49 -54 -123 -96 -190 -108 -26 -5 -56 -21 -87 -49 -86 -77 -201 -103 -303 -69 -45 16 -51 16 -97 -1 -37 -13 -68 -16 -121 -13 -83 6 -140 30 -204 89 -31 29 -51 39 -75 39 -51 0 -128 42 -178 96 -24 27 -69 61 -100 76 -92 45 -135 94 -173 199 -13 35 -38 80 -56 99 -69 73 -129 189 -145 281 l-7 37 -27 -27 c-77 -77 -204 -112 -238 -67 -25 35 -17 80 21 126 51 60 46 88 -26 166 -55 61 -72 101 -78 181 l-6 72 -105 -72z"/>
</g>
</svg>
